. 
 
http://www.torrenting.com          :     Once & For all ;)


               www . Torrenting . Com 

(((((((((((((= Enjoy No RAR releases =))))))))))))))))))))


...................................NFO:....................................

.[IMG]http://img833.imageshack.us/img833/4564/s6f9.jpg[/IMG]


[color=blue][size=5][b]The.Three.Musketeers.2011.BDRip.XVID.AC3.HQ.Hive-CM8[/b][/size][/color]


[b] Thx Hive

CM8 Doing It Right The First Time :D


Source: German Bluray

Video: 720x304 @bitrate 1700 2pass
Audio: English DTS to AC3 5.1 @448
Sample: Yes, included[/b]

 
http://www.imdb.com/title/tt1509767/


General
Complete name                  : The.Three.Musketeers.2011.BDRip.XVID.AC3.HQ.Hive-CM8.avi
Format                         : AVI
Format/Info                    : Audio Video Interleave
File size                      : 1.67 GiB
Duration                       : 1h 50mn
Overall bit rate               : 2 157 Kbps
Writing application            : Nandub v1.0rc2
Writing library                : Nandub build 1853/release

Video
ID                             : 0
Format                         : MPEG-4 Visual
Format profile                 : Advanced Simple@L5
Format settings, BVOP          : 1
Format settings, QPel          : Yes
Format settings, GMC           : No warppoints
Format settings, Matrix        : Default (H.263)
Muxing mode                    : Packed bitstream
Codec ID                       : XVID
Codec ID/Hint                  : XviD
Duration                       : 1h 50mn
Bit rate                       : 1 699 Kbps
Width                          : 720 pixels
Height                         : 304 pixels
Display aspect ratio           : 2.35:1
Frame rate                     : 23.976 fps
Color space                    : YUV
Chroma subsampling             : 4:2:0
Bit depth                      : 8 bits
Scan type                      : Progressive
Compression mode               : Lossy
Bits/(Pixel*Frame)             : 0.324
Stream size                    : 1.31 GiB (79%)
Writing library                : XviD 1.2.1 (UTC 2008-12-04)

Audio
ID                             : 1
Format                         : AC-3
Format/Info                    : Audio Coding 3
Mode extension                 : CM (complete main)
Codec ID                       : 2000
Duration                       : 1h 50mn
Bit rate mode                  : Constant
Bit rate                       : 448 Kbps
Channel(s)                     : 6 channels
Channel positions              : Front: L C R, Side: L R, LFE
Sampling rate                  : 48.0 KHz
Bit depth                      : 16 bits
Compression mode               : Lossy
Stream size                    : 354 MiB (21%)
Alignment                      : Split accross interleaves
Interleave, duration           : 42 ms (1.00 video frame)
Interleave, preload duration   : 500 ms


Plot:
The hot-headed young D'Artagnan along with three former legendary but now down
on their luck Musketeers must unite and defeat a beautiful double agent and her
villainous employer from seizing the French throne and engulfing Europe in war.


Cast:
Logan Lerman        ...    D'Artagnan
Matthew Macfadyen   ...    Athos
Milla Jovovich      ...    Milady de Winter
Ray Stevenson       ...    Porthos
Luke Evans          ...    Aramis


[img]http://img837.imageshack.us/img837/3071/3m3m3m3m3m3m3m.png[/img]
[img]http://img815.imageshack.us/img815/7923/3m3m3m3m3m3m.png[/img]
[img]http://img11.imageshack.us/img11/3087/3m3m3m3m3m.png[/img]
[img]http://img191.imageshack.us/img191/1831/3m3m3m3m.png[/img]
[img]http://img18.imageshack.us/img18/7746/3m3m3m.png[/img]
[img]http://img841.imageshack.us/img841/5796/3m3m.png[/img]
[img]http://img138.imageshack.us/img138/7349/94381000.png[/img]
[img]http://img826.imageshack.us/img826/7190/3m3m3m3m3m3m3m3m3m3m.png[/img]
[img]http://img46.imageshack.us/img46/6893/3m3m3m3m3m3m3m3m3m.png[/img]
[img]http://img132.imageshack.us/img132/3462/3m3m3m3m3m3m3m3m.png[/img]




Greetz

ViSiON,SPK,SceneLovers,PRESTiGE,SANTi,3LT0N,YanKeeS,COPYxRIGHT,THC,T0XiC
D2U,LKRG,Feel-Free,FLAWL3SS,WBZ,BHRG,26K,NOVA,SeToNeUp,TED,MAGNET,jtr
Unevano,Rapeseed,SAFC,goldadvance,KaN1vE,Pinnz,Wayne
Mr Hive,and most P2P groups
Great Work Guys :D

LOOKING FOR ANYTHING YOU WANT TO LOOK AND SOUND BETTER

CM8@hushmail.com